<?xml version="1.0" encoding="utf-8"?>
<svg width="24.738281px" height="43.032227px" viewBox="0 0 24.738281 43.032227" version="1.1" xmlns:xlink="http://www.w3.org/1999/xlink" xmlns="http://www.w3.org/2000/svg">
  <defs>
    <path d="M0 0L24.738 0L24.738 43.032L0 43.032L0 0Z" id="path_1" />
    <clipPath id="mask_1">
      <use xlink:href="#path_1" />
    </clipPath>
  </defs>
  <g id="que_icon">
    <path d="M0 0L24.738 0L24.738 43.032L0 43.032L0 0Z" id="Background" fill="none" fill-rule="evenodd" stroke="none" />
    <g clip-path="url(#mask_1)">
      <path d="M10.26 22.3091C12.004 19.1611 15.36 17.3041 17.304 14.5181C19.365 11.5961 18.21 6.13805 12.367 6.13805C8.539 6.13805 6.66 9.03805 5.867 11.4381L0 8.96905C1.69335 3.58925 6.70422 -0.0515911 12.344 5.31911e-05C17.666 5.41448e-05 21.313 2.42305 23.17 5.45805C24.755 8.05805 25.684 12.9321 23.238 16.5581C20.52 20.5671 17.916 21.7901 16.511 24.3721C15.945 25.4141 15.718 26.0931 15.718 29.4451L9.173 29.4451C9.15 27.6771 8.878 24.8001 10.26 22.3091L10.26 22.3091ZM16.896 38.5001C16.896 41.0019 14.8679 43.03 12.366 43.0301C9.86416 43.0301 7.83601 41.0019 7.836 38.5001C7.83599 35.9982 9.86413 33.9701 12.366 33.9701C14.8649 33.9772 16.8889 36.0012 16.896 38.5001L16.896 38.5001Z" id="Path_26" fill="#C14953" fill-rule="evenodd" stroke="none" />
    </g>
  </g>
</svg>